<svg xmlns="http://www.w3.org/2000/svg" width="20" height="18" viewBox="0 0 20 18" fill="none">
  <g clip-path="url(#clip0_18_7414)">
    <path d="M18.4141 0.35791L11.1475 5.75791L12.503 2.58013L18.4141 0.35791Z" fill="#E17726" stroke="#E17726" stroke-width="0.138889" stroke-linecap="round" stroke-linejoin="round"/>
    <path d="M1.58594 0.35791L8.80816 5.80791L7.52483 2.58013L1.58594 0.35791Z" fill="#E27625" stroke="#E27625" stroke-width="0.138889" stroke-linecap="round" stroke-linejoin="round"/>
    <path d="M15.7865 12.8804L13.8477 15.847L18.0032 16.9915L19.1977 12.947L15.7865 12.8804Z" fill="#E27625" stroke="#E27625" stroke-width="0.138889" stroke-linecap="round" stroke-linejoin="round"/>
    <path d="M0.814453 12.947L1.99779 16.9915L6.14779 15.847L4.21445 12.8804L0.814453 12.947Z" fill="#E27625" stroke="#E27625" stroke-width="0.138889" stroke-linecap="round" stroke-linejoin="round"/>
    <path d="M5.92509 7.86872L4.76953 9.61316L8.88064 9.7965L8.74731 5.35205L5.92509 7.86872Z" fill="#E27625" stroke="#E27625" stroke-width="0.138889" stroke-linecap="round" stroke-linejoin="round"/>
    <path d="M14.0808 7.86934L11.2141 5.31934L11.1475 9.79711L15.2586 9.61378L14.0808 7.86934Z" fill="#E27625" stroke="#E27625" stroke-width="0.138889" stroke-linecap="round" stroke-linejoin="round"/>
    <path d="M6.14746 15.8468L8.63635 14.6413L6.49191 12.9746L6.14746 15.8468Z" fill="#E27625" stroke="#E27625" stroke-width="0.138889" stroke-linecap="round" stroke-linejoin="round"/>
    <path d="M11.3633 14.6413L13.8466 15.8468L13.5077 12.9746L11.3633 14.6413Z" fill="#E27625" stroke="#E27625" stroke-width="0.138889" stroke-linecap="round" stroke-linejoin="round"/>
    <path d="M13.8466 15.8467L11.3633 14.6411L11.5633 16.2578V16.9411L13.8466 15.8467Z" fill="#D5BFB2" stroke="#D5BFB2" stroke-width="0.138889" stroke-linecap="round" stroke-linejoin="round"/>
    <path d="M6.14746 15.8471L8.45857 16.9582V16.2749L8.65302 14.6582L6.14746 15.8471Z" fill="#D5BFB2" stroke="#D5BFB2" stroke-width="0.138889" stroke-linecap="round" stroke-linejoin="round"/>
    <path d="M8.49666 11.908L6.43555 11.3024L7.8911 10.6357L8.49666 11.908Z" fill="#233447" stroke="#233447" stroke-width="0.138889" stroke-linecap="round" stroke-linejoin="round"/>
    <path d="M11.5029 11.908L12.1085 10.6357L13.5752 11.3024L11.5029 11.908Z" fill="#233447" stroke="#233447" stroke-width="0.138889" stroke-linecap="round" stroke-linejoin="round"/>
    <path d="M6.1472 15.847L6.50831 12.8804L4.21387 12.947L6.1472 15.847Z" fill="#CC6228" stroke="#CC6228" stroke-width="0.138889" stroke-linecap="round" stroke-linejoin="round"/>
    <path d="M13.4922 12.8804L13.8477 15.847L15.7866 12.947L13.4922 12.8804Z" fill="#CC6228" stroke="#CC6228" stroke-width="0.138889" stroke-linecap="round" stroke-linejoin="round"/>
    <path d="M15.2303 9.61328L11.1191 9.79661L11.5025 11.9077L12.108 10.6355L13.5747 11.3022L15.2303 9.61328Z" fill="#CC6228" stroke="#CC6228" stroke-width="0.138889" stroke-linecap="round" stroke-linejoin="round"/>
    <path d="M6.4362 11.3022L7.89175 10.6355L8.49731 11.9077L8.88064 9.79661L4.76953 9.61328L6.4362 11.3022Z" fill="#CC6228" stroke="#CC6228" stroke-width="0.138889" stroke-linecap="round" stroke-linejoin="round"/>
    <path d="M4.76953 9.61328L6.49175 12.9466L6.4362 11.2799L4.76953 9.61328Z" fill="#E27525" stroke="#E27525" stroke-width="0.138889" stroke-linecap="round" stroke-linejoin="round"/>
    <path d="M13.5755 11.3024L13.5088 12.9691L15.231 9.63574L13.5755 11.3024Z" fill="#E27525" stroke="#E27525" stroke-width="0.138889" stroke-linecap="round" stroke-linejoin="round"/>
    <path d="M8.88138 9.79688L8.49805 11.908L8.98138 14.3969L9.09249 11.1135L8.88138 9.79688Z" fill="#E27525" stroke="#E27525" stroke-width="0.138889" stroke-linecap="round" stroke-linejoin="round"/>
    <path d="M11.1473 9.79688L10.9473 11.108L11.0473 14.3969L11.5306 11.908L11.1473 9.79688Z" fill="#E27525" stroke="#E27525" stroke-width="0.138889" stroke-linecap="round" stroke-linejoin="round"/>
    <path d="M11.5029 11.9081L11.0195 14.397L11.364 14.6414L13.5084 12.9748L13.5751 11.3081L11.5029 11.9081Z" fill="#F5841F" stroke="#F5841F" stroke-width="0.138889" stroke-linecap="round" stroke-linejoin="round"/>
    <path d="M6.43555 11.3027L6.4911 12.9694L8.63555 14.6361L8.97999 14.3916L8.49666 11.9027L6.43555 11.3027Z" fill="#F5841F" stroke="#F5841F" stroke-width="0.138889" stroke-linecap="round" stroke-linejoin="round"/>
    <path d="M11.5475 16.9578V16.2745L11.3641 16.1133H8.58635L8.40857 16.2745V16.9578L6.14746 15.8467L6.95302 16.5078L8.61968 17.6189H11.4308L13.0975 16.5078L13.8475 15.8467L11.5475 16.9578Z" fill="#C0AC9D" stroke="#C0AC9D" stroke-width="0.138889" stroke-linecap="round" stroke-linejoin="round"/>
    <path d="M11.3646 14.6414L11.0202 14.397H8.98127L8.63683 14.6414L8.44238 16.2581L8.62016 16.097H11.3979L11.5813 16.2581L11.3646 14.6414Z" fill="#161616" stroke="#161616" stroke-width="0.138889" stroke-linecap="round" stroke-linejoin="round"/>
    <path d="M18.7244 6.11316L19.3411 3.12983L18.4133 0.352051L11.3633 5.57983L14.0799 7.86872L17.9077 8.97983L18.7522 7.99094L18.3688 7.72983L18.9244 7.17427L18.4799 6.82983L19.0355 6.38538L18.7244 6.11316Z" fill="#763E1A" stroke="#763E1A" stroke-width="0.138889" stroke-linecap="round" stroke-linejoin="round"/>
    <path d="M0.658203 3.13013L1.28043 6.11347L0.885981 6.40235L1.47487 6.8468L1.03043 7.19124L1.61376 7.7468L1.24709 8.01347L2.09154 8.98569L5.92487 7.87458L8.63598 5.58569L1.58598 0.35791L0.658203 3.13013Z" fill="#763E1A" stroke="#763E1A" stroke-width="0.138889" stroke-linecap="round" stroke-linejoin="round"/>
    <path d="M17.9088 8.98611L14.081 7.875L15.231 9.61945L13.5088 12.9528H15.7866H19.1977L17.9088 8.98611Z" fill="#F5841F" stroke="#F5841F" stroke-width="0.138889" stroke-linecap="round" stroke-linejoin="round"/>
    <path d="M5.92556 7.86914L2.09223 8.98025L0.814453 12.9469H4.21445H6.49223L4.77001 9.61359L5.92556 7.86914Z" fill="#F5841F" stroke="#F5841F" stroke-width="0.138889" stroke-linecap="round" stroke-linejoin="round"/>
    <path d="M11.1476 9.79674L11.3921 5.58008L12.5032 2.58008H7.52539L8.6365 5.58008L8.88095 9.79674L8.97539 11.1245V14.3967H11.0143V11.1245L11.1476 9.79674Z" fill="#F5841F" stroke="#F5841F" stroke-width="0.138889" stroke-linecap="round" stroke-linejoin="round"/>
  </g>
  <defs>
    <clipPath id="clip0_18_7414">
      <rect width="18.8167" height="17.4167" fill="white" transform="translate(0.591797 0.291504)"/>
    </clipPath>
  </defs>
</svg>