<svg width="18" height="20" viewBox="0 0 18 20" fill="none" xmlns="http://www.w3.org/2000/svg">
<path d="M15.7508 0H2.35078C1.22078 0 0.300781 0.92 0.300781 2.06V15.58C0.300781 16.72 1.22078 17.64 2.35078 17.64H13.6908L13.1608 15.79L14.4408 16.98L15.6508 18.1L17.8008 20V2.06C17.8008 0.92 16.8808 0 15.7508 0ZM11.8908 13.06C11.8908 13.06 11.5308 12.63 11.2308 12.25C12.5408 11.88 13.0408 11.06 13.0408 11.06C12.6308 11.33 12.2408 11.52 11.8908 11.65C11.3908 11.86 10.9108 12 10.4408 12.08C9.48078 12.26 8.60078 12.21 7.85078 12.07C7.28078 11.96 6.79078 11.8 6.38078 11.64C6.15078 11.55 5.90078 11.44 5.65078 11.3C5.62078 11.28 5.59078 11.27 5.56078 11.25C5.54078 11.24 5.53078 11.23 5.52078 11.22C5.34078 11.12 5.24078 11.05 5.24078 11.05C5.24078 11.05 5.72078 11.85 6.99078 12.23C6.69078 12.61 6.32078 13.06 6.32078 13.06C4.11078 12.99 3.27078 11.54 3.27078 11.54C3.27078 8.32 4.71078 5.71 4.71078 5.71C6.15078 4.63 7.52078 4.66 7.52078 4.66L7.62078 4.78C5.82078 5.3 4.99078 6.09 4.99078 6.09C4.99078 6.09 5.21078 5.97 5.58078 5.8C6.65078 5.33 7.50078 5.2 7.85078 5.17C7.91078 5.16 7.96078 5.15 8.02078 5.15C8.63078 5.07 9.32078 5.05 10.0408 5.13C10.9908 5.24 12.0108 5.52 13.0508 6.09C13.0508 6.09 12.2608 5.34 10.5608 4.82L10.7008 4.66C10.7008 4.66 12.0708 4.63 13.5108 5.71C13.5108 5.71 14.9508 8.32 14.9508 11.54C14.9508 11.54 14.1008 12.99 11.8908 13.06Z" fill="#604D56"/>
</svg>
