<svg width="18" height="20" viewBox="0 0 18 20" fill="none" xmlns="http://www.w3.org/2000/svg">
<path d="M18.1111 0H1.55105C1.1528 0 0.831055 0.32175 0.831055 0.72V17.28C0.831055 17.6783 1.1528 18 1.55105 18H18.1111C18.5093 18 18.8311 17.6783 18.8311 17.28V0.72C18.8311 0.32175 18.5093 0 18.1111 0Z" fill="#604D56"/>
<path d="M14.8311 7.16771V12.1429C14.8311 12.3702 14.7381 12.5882 14.5726 12.7489C14.4071 12.9097 14.1827 13 13.9487 13H5.71341C5.4794 13 5.25497 12.9097 5.08949 12.7489C4.92402 12.5882 4.83106 12.3702 4.83106 12.1429V7.16771L8.49959 10.1891C8.87155 10.4955 9.34339 10.6637 9.83106 10.6637C10.3187 10.6637 10.7906 10.4955 11.1625 10.1891L14.8311 7.16771ZM13.9487 5C14.0562 5.00012 14.1628 5.01909 14.2634 5.056C14.408 5.1095 14.5354 5.1992 14.6328 5.316C14.6856 5.37882 14.729 5.44855 14.7616 5.52314C14.7999 5.61114 14.8234 5.70657 14.8293 5.80686L14.8311 5.85714V6.14286L10.4037 9.81143C10.2513 9.93769 10.0593 10.0098 9.8591 10.016C9.65893 10.0222 9.46255 9.96204 9.30223 9.84543L9.25841 9.81114L4.83106 6.14286V5.85714C4.8307 5.69849 4.87583 5.54287 4.96138 5.40773C5.04694 5.27259 5.16955 5.16326 5.31547 5.092C5.43884 5.03142 5.57517 4.9999 5.71341 5H13.9487Z" fill="#30252B"/>
</svg>
