<svg width="25" height="25" viewBox="0 0 25 25" fill="none" xmlns="http://www.w3.org/2000/svg">
    <path
        d="M19.8744 15.2541V10.1641C19.8744 9.44406 19.4844 8.77406 18.8544 8.42406L14.2844 5.85406M11.1544 5.85406L6.58435 8.42406C5.95435 8.77406 5.56435 9.44406 5.56435 10.1641V15.7041M7.06435 17.8941L11.7444 20.5241C12.3544 20.8641 13.0944 20.8641 13.7044 20.5241L18.5444 17.8041M12.7144 9.88406V7.26406M12.7144 9.88406C11.168 9.88406 9.91435 11.1377 9.91435 12.6841C9.91435 14.2305 11.168 15.4841 12.7144 15.4841C14.2607 15.4841 15.5144 14.2305 15.5144 12.6841C15.5144 11.1377 14.2607 9.88406 12.7144 9.88406ZM15.3944 14.3641L18.5244 16.1541M10.0344 14.3641L6.90435 16.1541M14.2144 5.41406C14.2144 6.24249 13.5428 6.91406 12.7144 6.91406C11.8859 6.91406 11.2144 6.24249 11.2144 5.41406C11.2144 4.58564 11.8859 3.91406 12.7144 3.91406C13.5428 3.91406 14.2144 4.58564 14.2144 5.41406ZM7.05435 17.2041C7.05435 18.0325 6.38278 18.7041 5.55435 18.7041C4.72592 18.7041 4.05435 18.0325 4.05435 17.2041C4.05435 16.3756 4.72592 15.7041 5.55435 15.7041C6.38278 15.7041 7.05435 16.3756 7.05435 17.2041ZM21.3744 17.0441C21.3744 17.8725 20.7028 18.5441 19.8744 18.5441C19.0459 18.5441 18.3744 17.8725 18.3744 17.0441C18.3744 16.2156 19.0459 15.5441 19.8744 15.5441C20.7028 15.5441 21.3744 16.2156 21.3744 17.0441Z"
        stroke="#999195" stroke-width="1.4" stroke-linecap="round" stroke-linejoin="round" />
</svg>