<?xml version="1.0" encoding="UTF-8"?>
<svg width="2910px" height="694px" viewBox="0 0 2910 694" version="1.1" xmlns="http://www.w3.org/2000/svg" xmlns:xlink="http://www.w3.org/1999/xlink">
    <title>资源 3</title>
    <defs>
        <radialGradient cx="-289.743067%" cy="-21.7278953%" fx="-289.743067%" fy="-21.7278953%" r="1317.00361%" gradientTransform="translate(-2.8974, -0.2173), scale(0.789, 1), translate(2.8974, 0.2173)" id="radialGradient-1">
            <stop stop-color="#0049E7" offset="0%"></stop>
            <stop stop-color="#C835F8" offset="100%"></stop>
        </radialGradient>
        <radialGradient cx="-419.813151%" cy="-20.1445271%" fx="-419.813151%" fy="-20.1445271%" r="1299.87701%" gradientTransform="translate(-4.1981, -0.2014), scale(0.8452, 1), translate(4.1981, 0.2014)" id="radialGradient-2">
            <stop stop-color="#0049E7" offset="0%"></stop>
            <stop stop-color="#C835F8" offset="100%"></stop>
        </radialGradient>
        <radialGradient cx="73.2259635%" cy="-25.9083728%" fx="73.2259635%" fy="-25.9083728%" r="1341.91271%" gradientTransform="translate(0.7323, -0.2591), scale(0.7926, 1), translate(-0.7323, 0.2591)" id="radialGradient-3">
            <stop stop-color="#0049E7" offset="0%"></stop>
            <stop stop-color="#C835F8" offset="100%"></stop>
        </radialGradient>
        <radialGradient cx="-26.4178317%" cy="-23.875313%" fx="-26.4178317%" fy="-23.875313%" r="1320.24466%" gradientTransform="translate(-0.2642, -0.2388), scale(0.6109, 1), translate(0.2642, 0.2388)" id="radialGradient-4">
            <stop stop-color="#0049E7" offset="0%"></stop>
            <stop stop-color="#C835F8" offset="100%"></stop>
        </radialGradient>
        <radialGradient cx="-174.036637%" cy="-25.9039846%" fx="-174.036637%" fy="-25.9039846%" r="1341.91271%" gradientTransform="translate(-1.7404, -0.259), scale(0.7861, 1), translate(1.7404, 0.259)" id="radialGradient-5">
            <stop stop-color="#0049E7" offset="0%"></stop>
            <stop stop-color="#C835F8" offset="100%"></stop>
        </radialGradient>
        <radialGradient cx="-372.065418%" cy="-23.875313%" fx="-372.065418%" fy="-23.875313%" r="1320.24466%" gradientTransform="translate(-3.7207, -0.2388), scale(0.6109, 1), translate(3.7207, 0.2388)" id="radialGradient-6">
            <stop stop-color="#0049E7" offset="0%"></stop>
            <stop stop-color="#C835F8" offset="100%"></stop>
        </radialGradient>
        <linearGradient x1="-2.01064879%" y1="-18.8986554%" x2="110.583516%" y2="130.246719%" id="linearGradient-7">
            <stop stop-color="#0049E7" offset="0%"></stop>
            <stop stop-color="#C835F8" offset="100%"></stop>
        </linearGradient>
        <linearGradient x1="1.3474269%" y1="-21.7911698%" x2="114.623027%" y2="116.041064%" id="linearGradient-8">
            <stop stop-color="#0049E7" offset="0%"></stop>
            <stop stop-color="#C835F8" offset="100%"></stop>
        </linearGradient>
        <linearGradient x1="1.13598927%" y1="-10.9858262%" x2="111.380983%" y2="100.911102%" id="linearGradient-9">
            <stop stop-color="#0049E7" offset="0%"></stop>
            <stop stop-color="#C835F8" offset="100%"></stop>
        </linearGradient>
        <linearGradient x1="-13.9633957%" y1="-11.6781168%" x2="93.9444236%" y2="92.3763662%" id="linearGradient-10">
            <stop stop-color="#0049E7" stop-opacity="0" offset="6%"></stop>
            <stop stop-color="#C835F8" offset="100%"></stop>
        </linearGradient>
        <linearGradient x1="94.0202814%" y1="97.4179345%" x2="-4.57426044%" y2="-8.79158601%" id="linearGradient-11">
            <stop stop-color="#0049E7" offset="6%"></stop>
            <stop stop-color="#C835F8" offset="100%"></stop>
        </linearGradient>
        <linearGradient x1="-13.9623442%" y1="-11.6726438%" x2="93.9441557%" y2="92.3748177%" id="linearGradient-12">
            <stop stop-color="#0049E7" offset="6%"></stop>
            <stop stop-color="#C835F8" offset="84%"></stop>
            <stop stop-color="#FC66FF" offset="95%"></stop>
        </linearGradient>
    </defs>
    <g id="首页" stroke="none" stroke-width="1" fill="none" fill-rule="evenodd">
        <g id="启动图标" transform="translate(-4818, -419)" fill-rule="nonzero">
            <g id="资源-3" transform="translate(4818, 419)">
                <g id="编组" transform="translate(909.6144, 258.3976)">
                    <path d="M1084.53944,183.734848 L1247.29186,183.734848 C1251.81248,183.734848 1256.16308,183.344838 1260.34366,182.544816 C1264.52424,181.754796 1268.19474,180.564764 1271.36518,178.984722 C1274.52561,177.404681 1277.01596,175.374627 1278.82621,172.884562 C1280.63646,170.404496 1281.53658,167.464419 1281.53658,164.074329 C1281.53658,158.204174 1278.93622,153.794058 1273.73551,150.85398 C1268.53479,147.923903 1262.32393,145.993852 1255.09294,145.093828 L1160.84995,145.093828 C1147.50811,145.093828 1135.19642,143.683791 1123.89486,140.853716 C1112.5933,138.033642 1102.59192,133.79353 1093.89072,128.143381 C1085.18953,122.493232 1078.17856,115.553049 1072.86783,107.292831 C1067.5571,99.0426132 1064.33665,89.6123644 1063.2065,78.9920842 L1063.2065,69.1618248 C1064.78671,58.5415446 1068.23719,49.1112958 1073.54792,40.8610781 C1078.85865,32.6108604 1085.6996,25.7206786 1094.06075,20.1805325 C1102.4219,14.6503865 1112.25325,10.4102747 1123.55481,7.4701971 C1134.85637,4.54011979 1147.28808,3.06008074 1160.84995,3.06008074 L1357.47704,3.06008074 L1334.84393,54.5814401 L1173.38168,54.5814401 C1168.86105,54.5814401 1164.51046,54.9814507 1160.32988,55.7714715 C1156.1493,56.5614924 1152.4788,57.7515238 1149.30836,59.3315655 C1146.13792,60.9116071 1143.65758,62.951661 1141.84733,65.4317264 C1140.03708,67.9217921 1139.13696,70.8518694 1139.13696,74.2419589 C1139.13696,80.122114 1141.67731,84.6422333 1146.76801,87.8023166 C1151.84871,90.9724003 1158.00956,92.8824507 1165.24056,93.5624686 L1259.82359,93.5624686 C1273.38546,93.5624686 1285.80717,94.9725058 1297.11873,97.8025805 C1308.42028,100.632655 1318.36165,104.812765 1326.95284,110.342911 C1335.54402,115.883058 1342.43497,122.773239 1347.63569,131.023457 C1352.8364,139.273675 1356.10685,148.703924 1357.46704,159.324204 L1357.46704,169.154463 C1355.88682,179.774743 1352.43635,189.214992 1347.12562,197.45521 C1341.81489,205.705428 1334.97394,212.595609 1326.61279,218.135755 C1318.25164,223.675902 1308.42028,227.916014 1297.11873,230.846091 C1285.81717,233.786168 1273.38546,235.256207 1259.82359,235.256207 L1063.1965,235.256207 L1084.52943,183.734848 L1084.53944,183.734848 Z" id="路径" fill="url(#radialGradient-1)"></path>
                    <polygon id="路径" fill="url(#radialGradient-2)" points="1456.76072 88.7823425 1602.96087 88.7823425 1564.68559 139.303676 1456.76072 139.303676 1456.76072 175.334626 1642.28629 175.334626 1602.34078 235.256207 1379.04001 235.256207 1379.04001 0 1657.37837 0 1611.55205 59.921581 1456.75072 59.921581 1456.75072 88.7723422"></polygon>
                    <path d="M287.519617,239.52632 L180.894925,239.52632 L112.085444,179.574738 C88.5822055,159.134199 77.6807034,149.263938 69.839623,141.423731 C70.1796699,151.98401 70.8597636,163.224307 70.8597636,174.124594 L70.8597636,239.52632 L0,239.52632 L0,11.6503074 L70.8597636,11.6503074 L70.8597636,64.4517005 C70.8597636,78.4120689 70.1796699,92.3824375 69.4995762,104.302752 C78.3607972,96.1325364 90.6224867,84.5422306 111.395349,67.1717723 L177.144408,11.6503074 L279.338489,11.6503074 L192.126473,77.052033 C161.812296,99.8726351 147.840371,110.092905 133.188352,118.953139 C146.130135,127.803372 163.852577,140.413705 193.146613,164.254334 L287.509615,239.53632 L287.519617,239.52632 Z" id="路径" fill="url(#radialGradient-3)"></path>
                    <path d="M424.818535,239.52632 L467.404403,180.944774 L524.632288,180.944774 C538.254165,180.944774 554.266371,180.944774 565.167873,181.624792 C559.037028,173.454577 549.495714,159.484208 542.004682,148.58392 L501.129049,88.3023298 L394.164311,239.53632 L310.702811,239.53632 L456.842947,33.4608829 C466.384262,20.1805325 480.346186,7.91020871 502.489237,7.91020871 C524.632288,7.91020871 537.574071,19.1505053 547.455433,33.4608829 L689.855054,239.53632 L424.818535,239.53632 L424.818535,239.52632 Z" id="路径" fill="url(#radialGradient-4)"></path>
                    <path d="M867.699558,239.52632 L715.08853,239.52632 L715.08853,97.4825721 L785.948294,97.4825721 L785.948294,180.934774 L867.70956,180.934774 C906.884958,180.934774 935.158853,159.134199 935.158853,126.433336 C935.158853,93.7324731 905.864817,70.911871 867.70956,70.911871 L715.098532,70.911871 L715.098532,11.6403071 L867.70956,11.6403071 C947.420543,11.6403071 1004.99848,57.6215203 1004.99848,123.363255 C1004.99848,189.10499 946.740449,239.51632 867.70956,239.51632 L867.699558,239.52632 Z" id="路径" fill="url(#radialGradient-5)"></path>
                    <path d="M1735.34911,239.52632 L1777.93498,180.944774 L1835.16286,180.944774 C1848.79474,180.944774 1864.79695,180.944774 1875.69845,181.624792 C1869.5676,173.454577 1860.02629,159.484208 1852.53526,148.58392 L1811.65962,88.3023298 L1704.69489,239.53632 L1621.23339,239.53632 L1767.37352,33.4608829 C1776.91484,20.1805325 1790.87676,7.91020871 1813.01981,7.91020871 C1835.16286,7.91020871 1848.10465,19.1505053 1857.98601,33.4608829 L2000.38563,239.53632 L1735.34911,239.53632 L1735.34911,239.52632 Z" id="路径" fill="url(#radialGradient-6)"></path>
                </g>
                <g id="编组">
                    <path d="M436.599196,374.510615 C421.417104,437.422275 358.078377,476.113296 295.159707,460.932895 C232.241038,445.752495 193.545706,382.420824 208.727798,319.509164 C223.939894,256.597504 287.248617,217.906483 350.167286,233.086884 C413.125961,248.297285 451.781288,311.598955 436.599196,374.510615 Z" id="路径" fill="url(#linearGradient-7)"></path>
                    <path d="M580.349003,110.983662 C695.974935,224.99667 716.577773,408.941523 621.034609,547.075168 C601.631935,575.125908 578.788788,599.346547 553.465298,619.597082 C547.934536,590.946326 533.102493,566.505681 506.688853,548.175197 C502.288247,545.125117 498.207685,541.965033 494.487172,538.594944 C483.205618,528.454677 475.084499,516.574363 470.653888,501.113955 C468.983658,495.2238 469.693756,491.323697 473.664303,486.643574 C498.637744,457.062793 512.319629,422.771888 515.020001,384.150869 C521.620911,289.848381 455.581811,209.526262 359.708601,195.235885 C271.076389,182.005536 183.334299,243.607161 163.401552,332.969519 C138.008054,446.732521 226.570256,554.33536 342.976296,549.645236 C362.839032,548.825214 379.611344,551.415283 397.733841,560.175514 C411.455731,566.775688 426.217765,571.345808 441.179827,575.385915 C449.300946,577.585973 457.492075,579.606026 465.583189,581.696082 C492.256865,588.576263 512.46965,604.036671 527.901776,625.887248 C529.852045,628.657321 531.732304,631.417393 533.542553,634.287469 C420.396963,711.879516 266.545764,716.16963 146.989291,633.507449 C-7.8020373,526.504625 -46.5273732,314.259025 60.5073749,159.494942 C85.8708697,122.863975 117.145179,92.7131798 152.119998,69.4925672 C187.124821,46.2619542 225.890163,29.9215231 266.185715,20.8712843 C411.355717,-34.5601783 709.526802,37.9617352 709.526802,37.9617352 L580.359004,110.983662 L580.349003,110.983662 Z" id="路径" fill="url(#linearGradient-8)"></path>
                    <path d="M580.349003,110.983662 C695.974935,224.99667 716.577773,408.941523 621.034609,547.075168 C601.631935,575.125908 578.788788,599.346547 553.465298,619.597082 C547.934536,590.946326 533.102493,566.505681 506.688853,548.175197 C502.288247,545.125117 498.207685,541.965033 494.487172,538.594944 C483.205618,528.454677 475.084499,516.574363 470.653888,501.113955 C468.983658,495.2238 469.693756,491.323697 473.664303,486.643574 C498.637744,457.062793 512.319629,422.771888 515.020001,384.150869 C521.620911,289.848381 455.581811,209.526262 359.708601,195.235885 C271.076389,182.005536 183.334299,243.607161 163.401552,332.969519 C138.008054,446.732521 226.570256,554.33536 342.976296,549.645236 C362.839032,548.825214 379.611344,551.415283 397.733841,560.175514 C411.455731,566.775688 426.217765,571.345808 441.179827,575.385915 C449.300946,577.585973 457.492075,579.606026 465.583189,581.696082 C492.256865,588.576263 512.46965,604.036671 527.901776,625.887248 C529.852045,628.657321 531.732304,631.417393 533.542553,634.287469 C420.396963,711.879516 266.545764,716.16963 146.989291,633.507449 C-7.8020373,526.504625 -46.5273732,314.259025 60.5073749,159.494942 C85.8708697,122.863975 117.145179,92.7131798 152.119998,69.4925672 C187.124821,46.2619542 225.890163,29.9215231 266.185715,20.8712843 C411.355717,-34.5601783 709.526802,37.9617352 709.526802,37.9617352 L580.359004,110.983662 L580.349003,110.983662 Z" id="路径" fill="url(#linearGradient-9)"></path>
                    <path d="M577.578621,408.541513 C564.636838,462.202929 536.012894,507.994137 497.747621,542.245041 C486.256038,531.914768 477.974897,519.804449 473.464275,504.054033 C471.764041,498.053875 472.48414,494.08377 476.534698,489.313644 C501.978204,459.172849 515.930127,424.231927 518.670504,384.880889 C525.39143,288.788353 458.102159,206.946194 360.408698,192.375809 C270.096254,178.895454 180.683934,241.66711 160.371135,332.729513 C134.49757,448.652571 224.740004,558.295464 343.356348,553.525338 C363.599137,552.695316 380.691492,555.335386 399.154036,564.255621 C413.135963,570.975799 428.178035,575.635922 443.430137,579.75603 C389.292677,607.866772 325.103833,617.337022 261.135019,601.906615 C120.325617,567.935719 33.7736913,426.24198 67.7483726,285.498266 C101.793064,144.744553 243.422578,58.1622682 384.191975,92.1231643 C525.071386,126.164062 611.553302,267.787799 577.578621,408.541513 Z" id="路径" fill="url(#linearGradient-10)" opacity="0.33" style="mix-blend-mode: multiply;"></path>
                    <path d="M350.167286,233.086884 C413.125961,248.297285 451.781288,311.598955 436.599196,374.510615 C421.417104,437.422275 358.078377,476.113296 295.159707,460.932895 C232.241038,445.752495 193.545706,382.420824 208.727798,319.509164 C223.939894,256.597504 287.248617,217.906483 350.167286,233.086884 Z" id="路径" fill="url(#linearGradient-11)" style="mix-blend-mode: overlay;"></path>
                    <path d="M572.827966,407.391483 C560.136218,460.052872 532.042347,504.984058 494.477171,538.604945 C483.195616,528.464677 475.074497,516.584364 470.643887,501.123956 C468.973657,495.2338 469.683754,491.333697 473.654301,486.653574 C498.627743,457.072793 512.309628,422.781889 515.01,384.16087 C521.610909,289.858381 455.57181,209.536262 359.6986,195.245885 C271.066387,182.015536 183.324298,243.617161 163.391551,332.979519 C137.998052,446.742521 226.560255,554.33536 342.966294,549.655236 C362.829031,548.835215 379.601342,551.425283 397.723839,560.185514 C411.44573,566.785688 426.207764,571.355809 441.169826,575.395915 C388.042505,602.986643 325.053826,612.276888 262.275176,597.136489 C124.096137,563.80561 39.1544327,424.751941 72.4890258,286.618296 C105.90363,148.514652 244.902782,63.5424102 383.041816,96.8732896 C521.290865,130.284171 606.162559,269.257838 572.827966,407.391483 Z" id="路径" fill="url(#linearGradient-12)" style="mix-blend-mode: overlay;"></path>
                    <ellipse id="椭圆形" fill="#FFFFFF" transform="translate(276.189, 308.2908) rotate(-72.04) translate(-276.189, -308.2908)" cx="276.189009" cy="308.290803" rx="32.641207" ry="32.6441522"></ellipse>
                </g>
            </g>
        </g>
    </g>
</svg>