<svg width="667" height="188" viewBox="0 0 667 188" fill="none" xmlns="http://www.w3.org/2000/svg">
<g clip-path="url(#clip0_556_570)">
<path d="M95.0698 76.93C92.3898 74.25 89.6698 66.56 87.9198 60.81C87.3398 58.92 84.6698 58.92 84.0898 60.81C82.3398 66.55 79.6098 74.25 76.9398 76.93C74.2698 79.61 66.5698 82.33 60.8198 84.08C58.9298 84.66 58.9298 87.33 60.8198 87.91C66.5598 89.66 74.2598 92.39 76.9398 95.06C79.6198 97.73 82.3398 105.43 84.0898 111.18C84.6698 113.07 87.3398 113.07 87.9198 111.18C89.6698 105.44 92.3998 97.74 95.0698 95.06C97.7398 92.38 105.44 89.66 111.19 87.91C113.08 87.33 113.08 84.66 111.19 84.08C105.45 82.33 97.7498 79.6 95.0698 76.93Z" fill="url(#paint0_linear_556_570)"/>
<path d="M184.29 146.1C182.21 144.02 179.45 142.88 176.51 142.88C175.74 142.88 174.98 142.96 174.23 143.12L160.34 129.23C179.78 95.84 174.43 52.81 146.8 25.19C130.57 8.95 108.97 0 86 0C63.03 0 41.43 8.95 25.19 25.19C8.95 41.43 0 63.03 0 86C0 108.97 8.95 130.57 25.19 146.81C41.77 163.39 63.88 171.95 86.13 171.95C100.97 171.95 115.87 168.13 129.23 160.35L143.12 174.24C142.96 174.98 142.88 175.74 142.88 176.52C142.88 179.46 144.02 182.22 146.1 184.3C148.24 186.44 151.06 187.52 153.88 187.52C156.7 187.52 159.51 186.45 161.66 184.3C165.95 180.01 165.95 173.03 161.66 168.74C158.94 166.02 155.13 165.03 151.61 165.76L107.93 122.08L104.1 123.91C88.07 131.57 68.86 128.27 56.3 115.71C39.92 99.33 39.92 72.69 56.3 56.31C72.68 39.93 99.32 39.93 115.7 56.31C128.26 68.87 131.56 88.08 123.9 104.11L122.07 107.94L165.75 151.62C165.01 155.14 166 158.94 168.72 161.67C170.86 163.81 173.68 164.89 176.5 164.89C179.32 164.89 182.13 163.82 184.28 161.67C188.57 157.38 188.57 150.4 184.28 146.11L184.29 146.1ZM157.42 180.04C155.47 181.99 152.3 181.99 150.35 180.04C149.41 179.1 148.89 177.84 148.89 176.5C148.89 175.16 149.41 173.91 150.35 172.96C151.33 171.99 152.61 171.5 153.89 171.5C155.17 171.5 156.45 171.99 157.43 172.96C159.38 174.91 159.38 178.08 157.43 180.03L157.42 180.04ZM124.18 47.82C103.13 26.77 68.87 26.77 47.81 47.82C26.76 68.87 26.76 103.13 47.81 124.19C62.94 139.32 85.57 144 105.31 136.44L120.4 151.53C92.1 166.4 56.69 161.35 33.67 138.33C19.69 124.35 12 105.77 12 86C12 66.23 19.7 47.65 33.67 33.67C47.65 19.69 66.23 12 86 12C105.77 12 124.35 19.7 138.33 33.67C161.34 56.68 166.39 92.11 151.53 120.4L136.44 105.31C144 85.57 139.32 62.94 124.19 47.81L124.18 47.82ZM180.04 157.42C178.09 159.37 174.92 159.37 172.97 157.42C171.02 155.47 171.02 152.3 172.97 150.35C173.91 149.41 175.17 148.89 176.51 148.89C177.85 148.89 179.1 149.41 180.05 150.35C182 152.3 182 155.47 180.05 157.42H180.04Z" fill="url(#paint1_linear_556_570)"/>
</g>
<path d="M253.325 126.471H282.609V140.604H235.5V51.7341H253.325V126.471Z" fill="black"/>
<path d="M297.503 120.487C305.652 113.697 312.145 108.052 316.983 103.554C321.822 98.9702 325.853 94.2168 329.079 89.2938C332.304 84.3707 333.917 79.5325 333.917 74.7792C333.917 70.4503 332.899 67.055 330.861 64.5935C328.824 62.132 325.684 60.9012 321.44 60.9012C317.196 60.9012 313.928 62.3442 311.636 65.2301C309.344 68.0312 308.156 71.8932 308.071 76.8163H290.755C291.095 66.6306 294.108 58.9065 299.795 53.6439C305.567 48.3813 312.867 45.75 321.694 45.75C331.371 45.75 338.798 48.3389 343.975 53.5166C349.153 58.6094 351.742 65.3574 351.742 73.7606C351.742 80.3813 349.959 86.7049 346.395 92.7314C342.83 98.758 338.755 104.021 334.172 108.519C329.588 112.933 323.604 118.281 316.219 124.562H353.779V139.331H290.883V126.09L297.503 120.487Z" fill="black"/>
<path d="M394.04 141.75C388.268 141.75 383.091 140.731 378.507 138.694C373.924 136.572 370.274 133.729 367.558 130.164C364.926 126.599 363.483 122.652 363.229 118.323H381.181C381.52 121.039 382.836 123.288 385.128 125.071C387.505 126.853 390.433 127.745 393.913 127.745C397.308 127.745 399.94 127.066 401.807 125.708C403.759 124.349 404.735 122.609 404.735 120.487C404.735 118.196 403.547 116.498 401.17 115.395C398.879 114.206 395.186 112.933 390.093 111.575C384.831 110.302 380.502 108.986 377.107 107.628C373.796 106.27 370.91 104.19 368.449 101.389C366.072 98.5882 364.884 94.811 364.884 90.0577C364.884 86.1532 365.987 82.5882 368.194 79.3627C370.486 76.1373 373.711 73.5909 377.871 71.7235C382.115 69.8561 387.08 68.9224 392.767 68.9224C401.17 68.9224 407.876 71.0444 412.884 75.2885C417.892 79.4476 420.65 85.0922 421.16 92.2221H404.099C403.844 89.4211 402.656 87.2142 400.534 85.6015C398.497 83.9039 395.738 83.055 392.258 83.055C389.032 83.055 386.528 83.6492 384.746 84.8375C383.048 86.0259 382.2 87.681 382.2 89.8031C382.2 92.1797 383.388 94.0046 385.765 95.2779C388.141 96.4662 391.833 97.697 396.841 98.9702C401.934 100.243 406.136 101.559 409.446 102.917C412.757 104.275 415.6 106.397 417.977 109.283C420.438 112.084 421.711 115.819 421.796 120.487C421.796 124.562 420.65 128.212 418.359 131.437C416.152 134.662 412.926 137.209 408.682 139.076C404.523 140.859 399.642 141.75 394.04 141.75Z" fill="black"/>
<path d="M431.845 105.336C431.845 98.0365 433.33 91.6704 436.301 86.2381C439.272 80.7208 443.389 76.4768 448.651 73.506C453.914 70.4503 459.94 68.9224 466.731 68.9224C475.473 68.9224 482.688 71.1293 488.375 75.5431C494.147 79.872 498.009 85.9834 499.961 93.8773H480.736C479.717 90.8216 477.977 88.445 475.516 86.7474C473.139 84.9649 470.168 84.0736 466.603 84.0736C461.511 84.0736 457.479 85.941 454.508 89.6757C451.537 93.3256 450.052 98.5458 450.052 105.336C450.052 112.042 451.537 117.262 454.508 120.997C457.479 124.647 461.511 126.471 466.603 126.471C473.818 126.471 478.529 123.246 480.736 116.795H499.961C498.009 124.434 494.147 130.503 488.375 135.002C482.603 139.501 475.388 141.75 466.731 141.75C459.94 141.75 453.914 140.265 448.651 137.294C443.389 134.238 439.272 129.994 436.301 124.562C433.33 119.044 431.845 112.636 431.845 105.336Z" fill="black"/>
<path d="M508.436 105.082C508.436 97.9516 509.837 91.628 512.638 86.1107C515.524 80.5935 519.386 76.3495 524.224 73.3787C529.147 70.4078 534.622 68.9224 540.648 68.9224C545.911 68.9224 550.495 69.9834 554.399 72.1054C558.388 74.2275 561.571 76.9012 563.948 80.1267V70.0683H581.9V140.604H563.948V130.291C561.656 133.601 558.473 136.36 554.399 138.567C550.41 140.689 545.784 141.75 540.521 141.75C534.579 141.75 529.147 140.222 524.224 137.166C519.386 134.111 515.524 129.824 512.638 124.307C509.837 118.705 508.436 112.296 508.436 105.082ZM563.948 105.336C563.948 101.007 563.099 97.315 561.402 94.2593C559.704 91.1187 557.412 88.742 554.526 87.1293C551.64 85.4317 548.542 84.5829 545.232 84.5829C541.922 84.5829 538.866 85.3893 536.065 87.002C533.264 88.6147 530.972 90.9914 529.19 94.132C527.492 97.1877 526.643 100.838 526.643 105.082C526.643 109.326 527.492 113.06 529.19 116.286C530.972 119.426 533.264 121.845 536.065 123.543C538.951 125.241 542.006 126.09 545.232 126.09C548.542 126.09 551.64 125.283 554.526 123.67C557.412 121.973 559.704 119.596 561.402 116.54C563.099 113.4 563.948 109.665 563.948 105.336Z" fill="black"/>
<path d="M638.397 69.0497C646.8 69.0497 653.591 71.7235 658.768 77.071C663.946 82.3336 666.535 89.7182 666.535 99.2248V140.604H648.71V101.644C648.71 96.0418 647.31 91.7553 644.508 88.7845C641.707 85.7288 637.888 84.2009 633.05 84.2009C628.126 84.2009 624.222 85.7288 621.336 88.7845C618.535 91.7553 617.134 96.0418 617.134 101.644V140.604H599.31V70.0683H617.134V78.8535C619.511 75.7977 622.524 73.4211 626.174 71.7235C629.909 69.941 633.983 69.0497 638.397 69.0497Z" fill="black"/>
<defs>
<linearGradient id="paint0_linear_556_570" x1="58.3179" y1="86.9712" x2="113.651" y2="86.9712" gradientUnits="userSpaceOnUse">
<stop stop-color="#007AF5"/>
<stop offset="0.588923" stop-color="#BF80FF"/>
<stop offset="1" stop-color="#FFD9B3"/>
</linearGradient>
<linearGradient id="paint1_linear_556_570" x1="-3.8215" y1="97.2004" x2="191.176" y2="97.2004" gradientUnits="userSpaceOnUse">
<stop stop-color="#007AF5"/>
<stop offset="0.588923" stop-color="#BF80FF"/>
<stop offset="1" stop-color="#FFD9B3"/>
</linearGradient>
<clipPath id="clip0_556_570">
<rect width="187.5" height="187.5" fill="white"/>
</clipPath>
</defs>
</svg>
