<svg width="24" height="24" viewBox="0 0 24 24" fill="none" xmlns="http://www.w3.org/2000/svg">
<path d="M23.6408 14.9047C22.0379 21.334 15.5261 25.2468 9.09602 23.6435C2.66858 22.0406 -1.24421 15.5284 0.359461 9.09944C1.96163 2.66938 8.47345 -1.24378 14.9016 0.359137C21.3313 1.96206 25.2437 8.475 23.6408 14.9047Z" fill="#F7931A"/>
<path d="M17.2894 10.2917C17.5283 8.69474 16.3124 7.83627 14.6498 7.26359L15.1891 5.10036L13.8724 4.7722L13.3473 6.87842C13.0012 6.79216 12.6456 6.71078 12.2923 6.63015L12.8211 4.51004L11.5051 4.18188L10.9654 6.34437C10.6789 6.27911 10.3976 6.2146 10.1246 6.14672L10.1261 6.13997L8.31015 5.68655L7.95986 7.09295C7.95986 7.09295 8.93684 7.31684 8.91622 7.33072C9.44952 7.46386 9.54591 7.81677 9.52978 8.09655L8.91547 10.5609C8.95222 10.5703 8.99985 10.5838 9.05236 10.6048C9.00848 10.5939 8.9616 10.5819 8.91322 10.5703L8.05212 14.0226C7.98687 14.1846 7.82148 14.4276 7.44869 14.3353C7.46181 14.3545 6.49158 14.0964 6.49158 14.0964L5.83789 15.6037L7.55145 16.0309C7.87023 16.1108 8.18264 16.1944 8.49017 16.2732L7.94524 18.4612L9.2605 18.7893L9.80018 16.6246C10.1595 16.7221 10.5083 16.8121 10.8495 16.8969L10.3117 19.0515L11.6285 19.3796L12.1734 17.1958C14.4188 17.6207 16.1072 17.4493 16.8179 15.4185C17.3906 13.7833 16.7894 12.8401 15.6081 12.225C16.4684 12.0266 17.1165 11.4607 17.2894 10.2917ZM14.2808 14.5105C13.8739 16.1457 11.1207 15.2617 10.2281 15.04L10.9512 12.1414C11.8438 12.3641 14.7061 12.8052 14.2808 14.5105ZM14.6881 10.268C14.3168 11.7554 12.0253 10.9997 11.282 10.8145L11.9375 8.18544C12.6809 8.37071 15.0747 8.71649 14.6881 10.268Z" fill="white"/>
</svg>
